<svg xmlns="http://www.w3.org/2000/svg" width="39.637" height="39.637" viewBox="0 0 39.637 39.637">
  <g id="_002-taza-de-cafe" data-name="002-taza-de-cafe" transform="translate(0 0)">
    <g id="Grupo_54" data-name="Grupo 54" transform="translate(0 13.573)">
      <g id="Grupo_53" data-name="Grupo 53">
        <path id="Trazado_151" data-name="Trazado 151" d="M38.862,177.746H32.514v-1.639a.774.774,0,0,0-.774-.774H15.019a.774.774,0,0,0,0,1.548H30.966v5.935a14.75,14.75,0,0,1-7.278,12.7H8.827a14.75,14.75,0,0,1-7.278-12.7v-5.935H6.735a.774.774,0,0,0,0-1.548H.774a.774.774,0,0,0-.774.774v6.709a16.23,16.23,0,0,0,6.105,12.7H.774a.774.774,0,0,0-.774.774A5.115,5.115,0,0,0,5.109,201.4H29.263a5.115,5.115,0,0,0,5.109-5.109.774.774,0,0,0-.774-.774H26.409a16.351,16.351,0,0,0,3.584-4h2.185a7.466,7.466,0,0,0,7.458-7.458V178.52A.774.774,0,0,0,38.862,177.746Zm-6.123,19.315a3.567,3.567,0,0,1-3.476,2.787H5.109a3.567,3.567,0,0,1-3.476-2.787H32.739Zm-.225-14.244v-.426h2.477v1.664a2.816,2.816,0,0,1-2.813,2.813H32A16.3,16.3,0,0,0,32.514,182.817Zm5.574,1.239a5.916,5.916,0,0,1-5.909,5.909H30.861a16.164,16.164,0,0,0,.661-1.548h.657a4.366,4.366,0,0,0,4.361-4.361v-2.439a.774.774,0,0,0-.774-.774H32.514v-1.548h5.574Z" transform="translate(0 -175.333)" fill="#fff"/>
      </g>
    </g>
    <g id="Grupo_56" data-name="Grupo 56" transform="translate(14.599 0)">
      <g id="Grupo_55" data-name="Grupo 55">
        <path id="Trazado_152" data-name="Trazado 152" d="M190.982,4.284l-.4-.506a2.018,2.018,0,0,1,0-2.523.774.774,0,1,0-1.213-.963,3.559,3.559,0,0,0,0,4.45l.4.506a2.637,2.637,0,0,1,0,3.3l-.413.52a.774.774,0,1,0,1.213.963l.413-.52A4.179,4.179,0,0,0,190.982,4.284Z" transform="translate(-188.585 0)" fill="#fff"/>
      </g>
    </g>
    <g id="Grupo_58" data-name="Grupo 58" transform="translate(18.89 1.74)">
      <g id="Grupo_57" data-name="Grupo 57">
        <path id="Trazado_153" data-name="Trazado 153" d="M246.411,26.768l-.4-.506a2.018,2.018,0,0,1,0-2.523.774.774,0,0,0-1.213-.963,3.559,3.559,0,0,0,0,4.45l.4.506a2.637,2.637,0,0,1,0,3.3l-.413.52a.774.774,0,1,0,1.213.962l.413-.52A4.179,4.179,0,0,0,246.411,26.768Z" transform="translate(-244.014 -22.484)" fill="#fff"/>
      </g>
    </g>
    <g id="Grupo_60" data-name="Grupo 60" transform="translate(10.308 1.74)">
      <g id="Grupo_59" data-name="Grupo 59">
        <path id="Trazado_154" data-name="Trazado 154" d="M135.553,26.769l-.4-.506a2.018,2.018,0,0,1,0-2.523.774.774,0,0,0-1.213-.963,3.56,3.56,0,0,0,0,4.45l.4.506a2.637,2.637,0,0,1,0,3.3l-.413.52a.774.774,0,1,0,1.213.963l.413-.52A4.179,4.179,0,0,0,135.553,26.769Z" transform="translate(-133.156 -22.485)" fill="#fff"/>
      </g>
    </g>
    <g id="Grupo_62" data-name="Grupo 62" transform="translate(10.312 13.573)">
      <g id="Grupo_61" data-name="Grupo 61">
        <path id="Trazado_155" data-name="Trazado 155" d="M134.531,175.557a.775.775,0,1,0,.227.547A.78.78,0,0,0,134.531,175.557Z" transform="translate(-133.21 -175.33)" fill="#fff"/>
      </g>
    </g>
    <g id="Grupo_64" data-name="Grupo 64" transform="translate(23.828 20.282)">
      <g id="Grupo_63" data-name="Grupo 63">
        <path id="Trazado_156" data-name="Trazado 156" d="M311.991,262a.774.774,0,0,0-.774.774,11.092,11.092,0,0,1-3.2,7.748.774.774,0,1,0,1.1,1.09,12.651,12.651,0,0,0,3.646-8.838A.774.774,0,0,0,311.991,262Z" transform="translate(-307.795 -262)" fill="#fff"/>
      </g>
    </g>
    <g id="Grupo_66" data-name="Grupo 66" transform="translate(21.285 30.512)">
      <g id="Grupo_65" data-name="Grupo 65">
        <path id="Trazado_157" data-name="Trazado 157" d="M276.411,394.53a.774.774,0,0,0-1.055-.294l-.018.01a.774.774,0,1,0,.761,1.349l.018-.01A.774.774,0,0,0,276.411,394.53Z" transform="translate(-274.945 -394.136)" fill="#fff"/>
      </g>
    </g>
  </g>
</svg>
