<svg xmlns="http://www.w3.org/2000/svg" width="44.597" height="33.448" viewBox="0 0 44.597 33.448">
  <g id="_005-pescado" data-name="005-pescado" transform="translate(0 -63.998)">
    <g id="Grupo_52" data-name="Grupo 52" transform="translate(0 63.998)">
      <g id="Grupo_51" data-name="Grupo 51">
        <path id="Trazado_140" data-name="Trazado 140" d="M44.479,81.2A21.811,21.811,0,0,0,27.5,69.73C23.913,65.2,12.654,64.05,12.168,64a.929.929,0,0,0-.956,1.258,74.91,74.91,0,0,1,2.534,7.458,31.582,31.582,0,0,0-4.984,2.76c-2.5-4-7.6-4.048-7.833-4.048A.929.929,0,0,0,0,72.36c0,5.383,1.876,8.085,3.131,9.291C1.876,82.857,0,85.559,0,90.942a.929.929,0,0,0,.929.929c.233,0,5.334-.05,7.833-4.048a36.333,36.333,0,0,0,7.069,3.652,9.878,9.878,0,0,0-.966,5.041.929.929,0,0,0,.929.929c.276,0,6.594-.055,9.741-3.746A21.783,21.783,0,0,0,44.479,82.1.929.929,0,0,0,44.479,81.2ZM13.493,66.038c3.122.452,8.247,1.564,11.144,3.554a29.414,29.414,0,0,0-9.167,2.381C15.058,70.339,14.145,67.788,13.493,66.038Zm3.253,29.5c.124-2.584.72-3.245.887-3.38a30.231,30.231,0,0,0,5.311,1.394A13.455,13.455,0,0,1,16.746,95.534Zm.779-3.414v0l.008,0Zm7.561-.249c-5.429,0-14.307-4.458-15.951-6.14a.927.927,0,0,0-.664-.279.981.981,0,0,0-.17.015.929.929,0,0,0-.683.545c-1.254,2.908-4.2,3.7-5.735,3.919.29-5.822,3.046-7.378,3.187-7.454a.934.934,0,0,0,0-1.652c-.124-.066-2.9-1.611-3.188-7.449,1.532.224,4.491,1.03,5.735,3.913a.929.929,0,0,0,1.517.281c1.644-1.682,10.521-6.14,15.951-6.14A19.933,19.933,0,0,1,42.6,81.651,19.933,19.933,0,0,1,25.086,91.871Z" transform="translate(0 -63.998)" fill="#fff"/>
        <path id="Trazado_141" data-name="Trazado 141" d="M300.525,179.042a13.593,13.593,0,0,1,1.7-6.92.929.929,0,0,0-1.548-1.028,16.689,16.689,0,0,0,0,15.9.929.929,0,1,0,1.546-1.031A13.412,13.412,0,0,1,300.525,179.042Z" transform="translate(-272.652 -161.389)" fill="#fff"/>
        <path id="Trazado_142" data-name="Trazado 142" d="M259.3,170.836a.93.93,0,0,0-1.285.259A15.156,15.156,0,0,0,256,179.043a16.926,16.926,0,0,0,1.032,5.9.929.929,0,0,0,1.74-.651,15.071,15.071,0,0,1-.914-5.251,13.593,13.593,0,0,1,1.7-6.92A.931.931,0,0,0,259.3,170.836Z" transform="translate(-233.701 -161.39)" fill="#fff"/>
        <circle id="Elipse_14" data-name="Elipse 14" cx="1.858" cy="1.858" r="1.858" transform="translate(31.59 13.008)" fill="#fff"/>
      </g>
    </g>
  </g>
</svg>
