<svg xmlns="http://www.w3.org/2000/svg" width="37.394" height="39.879" viewBox="0 0 37.394 39.879">
  <path id="_001-chinese-food" data-name="001-chinese-food" d="M37.151,20.408a.946.946,0,0,0-.7-.31h-1.1A7.115,7.115,0,0,0,33.9,16.322a.584.584,0,1,0-.929.709,5.956,5.956,0,0,1,1.2,3.067h-1.1a4.925,4.925,0,0,0-7.938-3.288,7.22,7.22,0,0,0-.661-.875,5.994,5.994,0,0,1,.557-.386l.007,0a6.063,6.063,0,0,1,.725-.381l.071-.03c.062-.027.125-.052.188-.076l.124-.046.1-.034c.065-.022.13-.043.195-.062l.088-.026q.1-.029.2-.054l.09-.021.154-.033.144-.027.131-.022.122-.018a6.024,6.024,0,0,1,3.727.693.584.584,0,1,0,.566-1.023,7.193,7.193,0,0,0-3.026-.881l6.911-9.559a1.1,1.1,0,0,0-.258-1.54h0l-.871-.612a1.1,1.1,0,0,0-1.536.279L24.321,14.613a7.211,7.211,0,0,0-.693.5L23.6,15.1,30.052,2.041A1.1,1.1,0,0,0,29.541.565l-.96-.458a1.1,1.1,0,0,0-1.468.531L21.149,13.589A7.193,7.193,0,0,0,7.132,13.8a7.21,7.21,0,0,0-5.087,6.3H.942A.943.943,0,0,0,0,21.134C.379,24.883,2.018,31.8,8.777,36.17v1.854a1.858,1.858,0,0,0,1.856,1.855H26.768a1.857,1.857,0,0,0,1.855-1.855V36.166a18.646,18.646,0,0,0,7.351-9.085c.187-.48.36-.976.514-1.474.124-.4.238-.814.34-1.226a23.132,23.132,0,0,0,.56-3.247A.945.945,0,0,0,37.151,20.408ZM33.8,2.791l.751.528L27.146,13.563l-.1.017-.152.026-.134.025q-.119.023-.236.051l-.112.028-.072.018ZM28.18,16.923A3.765,3.765,0,0,1,31.894,20.1h-1.12a2.657,2.657,0,0,0-4.691-1.047,7.115,7.115,0,0,0-.389-1.187A3.772,3.772,0,0,1,28.18,16.923ZM29.551,20.1H26.809a1.49,1.49,0,0,1,2.742,0Zm-1.407-18.9.828.395L22.629,14.43q-.229-.131-.469-.245ZM21.2,15.048l.139.054.074.031q.111.047.219.1l.1.046.111.057.116.062.122.068c.051.03.1.059.151.09l.084.053.127.084.074.05a6.066,6.066,0,0,1,2.047,2.46l.009.021a5.976,5.976,0,0,1,.5,1.866v.01h-1.1a4.927,4.927,0,0,0-8.431-2.845,7.217,7.217,0,0,0-.608-.94A6.016,6.016,0,0,1,21.2,15.048Zm-2.129,2.976A2.664,2.664,0,0,0,16.481,20.1h-.1s0-.009,0-.013q-.009-.11-.022-.219c0-.02,0-.04-.007-.061q-.015-.12-.033-.239c0-.018-.006-.035-.009-.053q-.015-.089-.032-.177a.083.083,0,0,0,0-.009l0-.022-.01-.051c-.016-.079-.033-.157-.052-.234l-.015-.062c-.01-.042-.021-.084-.032-.125v0l-.024-.09-.009-.03c-.012-.04-.024-.081-.036-.12l0-.005-.031-.1-.012-.038a3.759,3.759,0,0,1,6.736,1.65h-1.12A2.663,2.663,0,0,0,19.075,18.023ZM20.446,20.1H17.7a1.49,1.49,0,0,1,2.742,0Zm-6.282-6.28a1.5,1.5,0,0,1,1.247.677,7.2,7.2,0,0,0-1.268.954,7.227,7.227,0,0,0-1.237-.937A1.493,1.493,0,0,1,14.164,13.818Zm-2.309.173a7.11,7.11,0,0,0-1.069-.329,3.757,3.757,0,0,1,6.754-.006,7.19,7.19,0,0,0-1.073.324,2.658,2.658,0,0,0-4.612.011Zm-1.62-3.249a6.025,6.025,0,0,1,9.688,2.8,7.222,7.222,0,0,0-.848-.05c-.11,0-.22,0-.33.008a4.926,4.926,0,0,0-9.164,0q-.183-.009-.367-.009a7.227,7.227,0,0,0-.808.046A6.04,6.04,0,0,1,10.234,10.742Zm-1.02,3.915a6.032,6.032,0,0,1,5.426,3.408l.023.051q.047.1.091.2l.042.1c.021.051.042.1.061.155s.031.086.046.13.031.088.045.133.03.1.045.146.024.082.035.123.027.1.04.154.019.081.028.122.022.1.032.156.016.085.023.128.017.1.024.152.012.1.018.143.011.091.016.137h-1.1a4.927,4.927,0,0,0-9.784,0h-1.1A6.033,6.033,0,0,1,9.214,14.658Zm0,3.366A2.663,2.663,0,0,0,6.621,20.1H5.5a3.759,3.759,0,0,1,7.427,0h-1.12A2.663,2.663,0,0,0,9.214,18.023ZM10.585,20.1H7.843a1.49,1.49,0,0,1,2.742,0Zm25.109,4c-.1.39-.2.781-.322,1.162-.145.472-.309.941-.486,1.394a17.5,17.5,0,0,1-7,8.595.086.086,0,0,1-.02.008.1.1,0,0,1-.028.005H13.984a.584.584,0,1,0,0,1.169H27.455v1.591a.688.688,0,0,1-.687.687H10.632a.688.688,0,0,1-.687-.687V36.433h1.32a.584.584,0,0,0,0-1.169H9.557a.1.1,0,0,1-.028,0,.072.072,0,0,1-.02-.009A18.706,18.706,0,0,1,1.194,21.267H36.2A21.976,21.976,0,0,1,35.695,24.1Zm0,0" transform="translate(0 0)" fill="#fff"/>
</svg>
