<svg id="_003-pastry" data-name="003-pastry" xmlns="http://www.w3.org/2000/svg" width="38.106" height="38.106" viewBox="0 0 38.106 38.106">
  <path id="Trazado_158" data-name="Trazado 158" d="M36.992,27.474c.015-.158.023-.316.023-.472a4.968,4.968,0,0,0-2.888-4.5,4.924,4.924,0,0,0-.7-1.527l.113-.036a2.526,2.526,0,0,0,1.578-1.27,4.949,4.949,0,0,0,1.528-7.509c.015-.155.023-.313.023-.472a4.972,4.972,0,0,0-2.886-4.5,4.948,4.948,0,0,0-4.344-3.649,4.927,4.927,0,0,0-4.219-2.354,5,5,0,0,0-.841.071A4.913,4.913,0,0,0,21.152.061,4.97,4.97,0,0,0,19.112.5a4.955,4.955,0,0,0-5.268.587A4.951,4.951,0,0,0,8.812,3.058a4.931,4.931,0,0,0-4.35,3.385A4.96,4.96,0,0,0,1.4,11.976,4.528,4.528,0,0,0,0,15.435a5.253,5.253,0,0,0,2.766,4.422A2.143,2.143,0,0,0,4.127,21.1c.258.094.536.184.83.272q-.081.19-.146.389a4.946,4.946,0,0,0-3.06,5.532,4.534,4.534,0,0,0-1.4,3.459,5.247,5.247,0,0,0,2.766,4.42,2.142,2.142,0,0,0,1.361,1.245,39.555,39.555,0,0,0,10.887,1.628h.03a.744.744,0,0,0,.029-1.487,38.749,38.749,0,0,1-10.44-1.54c-.379-.137-.474-.3-.5-.449V34.56a1.01,1.01,0,0,1-.006-.144v-.038a14.253,14.253,0,0,1,4.306-10.24c1.323-1.3,8.554-6.9,17.2-2.741a13.566,13.566,0,0,1,3.833,2.741c2.638,2.848,4.345,5.78,4.306,10.206a1.132,1.132,0,0,1-.694.493,46.9,46.9,0,0,1-11.7,1.712.744.744,0,0,0,.062,1.486,48.359,48.359,0,0,0,12.1-1.784,2.539,2.539,0,0,0,1.577-1.269,4.953,4.953,0,0,0,1.529-7.511ZM35.322,12.9a3.462,3.462,0,0,1-.114,4.877,15.675,15.675,0,0,0-1.656-5.88,3.422,3.422,0,0,1,.512.156A3.492,3.492,0,0,1,35.322,12.9ZM32.883,8.421h0a3.482,3.482,0,0,1,2.2,2.468,4.94,4.94,0,0,0-2.284-.558l-.165,0a16.039,16.039,0,0,0-1.615-2.046,3.491,3.491,0,0,1,1.862.132ZM28.987,5h.005A3.467,3.467,0,0,1,32,6.742c-.1-.006-.194-.01-.292-.01a4.974,4.974,0,0,0-1.9.379,16.65,16.65,0,0,0-2.38-1.738A3.455,3.455,0,0,1,28.987,5ZM24.34,2.779a3.488,3.488,0,0,1,3.34.913,4.928,4.928,0,0,0-1.751.882,16.241,16.241,0,0,0-2.978-1.063A3.477,3.477,0,0,1,24.34,2.779Zm-4.878-.792a3.483,3.483,0,0,1,3.2-.1,5.015,5.015,0,0,0-1.425,1.291,15.246,15.246,0,0,0-2.285-.136c-.219,0-.437,0-.656,0A3.487,3.487,0,0,1,19.462,1.987Zm-4.91.453a3.465,3.465,0,0,1,3.06-.887A5,5,0,0,0,16.541,3.2a15.917,15.917,0,0,0-2.908.7A3.45,3.45,0,0,1,14.552,2.44ZM9.86,4.169a3.488,3.488,0,0,1,2.786-1.69A4.891,4.891,0,0,0,12,4.561,16.632,16.632,0,0,0,9.377,6.1c0-.053,0-.106,0-.159A3.458,3.458,0,0,1,9.86,4.169ZM5.794,7.191A3.449,3.449,0,0,1,8.04,4.718a4.923,4.923,0,0,0,0,2.443q-.331.293-.648.6A16.194,16.194,0,0,0,5.976,9.353,3.47,3.47,0,0,1,5.7,8,3.433,3.433,0,0,1,5.794,7.191ZM2.681,17.978a3.72,3.72,0,0,1-1.194-2.544A3.173,3.173,0,0,1,2,13.566a4.949,4.949,0,0,0,1.189,1.366A15.805,15.805,0,0,0,2.681,17.978Zm1.013-4.6a3.453,3.453,0,0,1-.755-1.354,3.474,3.474,0,0,1,1.282-3.76,4.961,4.961,0,0,0,.8,2.45A15.654,15.654,0,0,0,3.694,13.377ZM3.031,33.295a3.716,3.716,0,0,1-1.194-2.543,3.177,3.177,0,0,1,.512-1.869,4.967,4.967,0,0,0,1.188,1.366A15.83,15.83,0,0,0,3.031,33.295Zm1.013-4.6a3.462,3.462,0,0,1-.893-2.321A3.488,3.488,0,0,1,4.57,23.58a4.961,4.961,0,0,0,.8,2.45A15.652,15.652,0,0,0,4.044,28.692Zm3.7-5.614A16.139,16.139,0,0,0,6.326,24.67a3.477,3.477,0,0,1,.322-3.306.709.709,0,0,0,.053-.076A3.447,3.447,0,0,1,8.39,20.036a4.951,4.951,0,0,0,0,2.442Q8.061,22.769,7.745,23.078Zm4.606-3.2a16.613,16.613,0,0,0-2.623,1.537c0-.053,0-.106,0-.159a3.447,3.447,0,0,1,.486-1.768,3.489,3.489,0,0,1,2.785-1.69A4.887,4.887,0,0,0,12.351,19.876Zm-3.189-1.5a4.939,4.939,0,0,0-3.384,1.682c-.373-.1-.718-.207-1.031-.316l-.113-.04h0c-.378-.137-.472-.295-.495-.447v-.006A.959.959,0,0,1,4.13,19.1v-.038A14.254,14.254,0,0,1,8.436,8.825a16.032,16.032,0,0,1,8.7-4.2c.024,0,.049,0,.073-.008a13.718,13.718,0,0,1,1.728-.079h.026a13.8,13.8,0,0,1,2.457.179.756.756,0,0,0,.088.014,13.615,13.615,0,0,1,7.653,3.806l0,0c.1.094.2.19.3.288a14.252,14.252,0,0,1,4.3,10.206,1.124,1.124,0,0,1-.693.492c-.272.088-.55.172-.831.25a4.945,4.945,0,0,0-2.463-.92,4.925,4.925,0,0,0-4.22-2.356,5.01,5.01,0,0,0-.84.072A4.916,4.916,0,0,0,21.5,15.376a4.966,4.966,0,0,0-2.041.44,4.954,4.954,0,0,0-5.268.587,4.962,4.962,0,0,0-5.032,1.973Zm7.729.14a15.873,15.873,0,0,0-2.908.7,3.47,3.47,0,0,1,3.979-2.349A5,5,0,0,0,16.891,18.516Zm4.694-.016a15.219,15.219,0,0,0-2.283-.135c-.219,0-.438,0-.657,0A3.458,3.458,0,0,1,21.5,16.863a3.456,3.456,0,0,1,1.509.344A5.019,5.019,0,0,0,21.585,18.5Zm1.714.328a3.463,3.463,0,0,1,1.386-.733,3.576,3.576,0,0,1,.88-.112,3.45,3.45,0,0,1,2.465,1.025,4.909,4.909,0,0,0-1.751.882A16.248,16.248,0,0,0,23.3,18.828Zm4.477,1.864a3.461,3.461,0,0,1,1.561-.372h.005a3.469,3.469,0,0,1,2.224.8.725.725,0,0,0,.056.048,3.454,3.454,0,0,1,.728.886c-.1-.006-.194-.01-.292-.01a4.982,4.982,0,0,0-1.9.38A16.7,16.7,0,0,0,27.776,20.691Zm5.209,4.961a16.033,16.033,0,0,0-1.616-2.047,3.452,3.452,0,0,1,1.861.134h0a3.477,3.477,0,0,1,2.2,2.466,4.9,4.9,0,0,0-2.284-.556ZM35.558,33.1A15.674,15.674,0,0,0,33.9,27.219a3.446,3.446,0,0,1,.511.153,3.5,3.5,0,0,1,1.258.849,3.466,3.466,0,0,1-.114,4.876Zm0,0" transform="translate(0 0)" fill="#fff"/>
  <path id="Trazado_159" data-name="Trazado 159" d="M182.2,385.605a.744.744,0,0,0,0,1.487h.017a.744.744,0,1,0,0-1.487Zm0,0" transform="translate(-167.956 -356.907)" fill="#fff"/>
  <path id="Trazado_160" data-name="Trazado 160" d="M270.676,330.958a.744.744,0,0,0-.744-.743h-.017a.744.744,0,0,0,0,1.487h.017A.744.744,0,0,0,270.676,330.958Zm0,0" transform="translate(-249.139 -305.638)" fill="#fff"/>
  <path id="Trazado_161" data-name="Trazado 161" d="M344.545,410.975a.744.744,0,1,0,0-1.487h-.017a.744.744,0,0,0,0,1.487Zm0,0" transform="translate(-318.199 -379.012)" fill="#fff"/>
  <path id="Trazado_162" data-name="Trazado 162" d="M336.337,144.085h.015a.744.744,0,0,0,0-1.487h-.015a.744.744,0,0,0,0,1.487Zm0,0" transform="translate(-310.617 -131.985)" fill="#fff"/>
  <path id="Trazado_163" data-name="Trazado 163" d="M169.942,142.6h-.015a.744.744,0,1,0,0,1.487h.015a.744.744,0,1,0,0-1.487Zm0,0" transform="translate(-156.592 -131.985)" fill="#fff"/>
  <path id="Trazado_164" data-name="Trazado 164" d="M252.31,111.049h.015a.743.743,0,0,0,0-1.487h-.015a.743.743,0,0,0,0,1.487Zm0,0" transform="translate(-232.843 -101.408)" fill="#fff"/>
  <path id="Trazado_165" data-name="Trazado 165" d="M238.946,492.02h-.015a.744.744,0,0,0,0,1.487h.015a.744.744,0,0,0,0-1.487Zm0,0" transform="translate(-220.46 -455.401)" fill="#fff"/>
</svg>
