<svg id="_007-hamburguesa" data-name="007-hamburguesa" xmlns="http://www.w3.org/2000/svg" width="36.922" height="36.532" viewBox="0 0 36.922 36.532">
  <path id="Trazado_143" data-name="Trazado 143" d="M286.811,45.506a15.66,15.66,0,0,1,6.352,2.409,9.9,9.9,0,0,1,3.676,4.238.721.721,0,1,0,1.329-.56,11.331,11.331,0,0,0-4.2-4.872,17.107,17.107,0,0,0-6.94-2.64.721.721,0,0,0-.221,1.425Zm0,0" transform="translate(-265.561 -40.894)" fill="#fff"/>
  <path id="Trazado_144" data-name="Trazado 144" d="M99.687,126.2a.721.721,0,1,0,.248-.864A.737.737,0,0,0,99.687,126.2Zm0,0" transform="translate(-92.45 -116.181)" fill="#fff"/>
  <path id="Trazado_145" data-name="Trazado 145" d="M147.859,88.959a.721.721,0,1,0,.244-.861A.736.736,0,0,0,147.859,88.959Zm0,0" transform="translate(-137.148 -81.622)" fill="#fff"/>
  <path id="Trazado_146" data-name="Trazado 146" d="M199.625,126.2a.721.721,0,1,0,.248-.864A.738.738,0,0,0,199.625,126.2Zm0,0" transform="translate(-185.182 -116.181)" fill="#fff"/>
  <path id="Trazado_147" data-name="Trazado 147" d="M36.922,22.855a3.654,3.654,0,0,0-2.439-3.441v-1.8a3.1,3.1,0,0,0,.654-.334,2.848,2.848,0,0,0,1.292-2.39,2.817,2.817,0,0,0-.535-1.659,2.327,2.327,0,0,0,.143-1.335,13.457,13.457,0,0,0-5.971-8.513A20.87,20.87,0,0,0,18.461,0,20.87,20.87,0,0,0,6.855,3.378,13.456,13.456,0,0,0,.884,11.891a2.325,2.325,0,0,0,.3,1.642,2.805,2.805,0,0,0-.341,1.352,2.847,2.847,0,0,0,1.292,2.391,3.139,3.139,0,0,0,.3.179v1.959A3.654,3.654,0,0,0,0,22.855V23a3.638,3.638,0,0,0,1.163,2.667,2.844,2.844,0,0,0,.417,3.219v2.6a5.048,5.048,0,0,0,5.042,5.042H30.3a5.048,5.048,0,0,0,5.042-5.042V29.215a2.848,2.848,0,0,0,.64-3.771A3.632,3.632,0,0,0,36.922,23Zm-1.442,0V23a2.209,2.209,0,0,1-2.206,2.206H22.092l4.6-4.558h6.583A2.208,2.208,0,0,1,35.48,22.855ZM10.93,20.65l.114.115.74.739-1.548,1.549-2.4-2.4Zm6.809,4.769-4.424-4.424h0l-.344-.344H24.639l-4.819,4.766h0l0,0-1.039,1.039ZM2.3,12.156A12.034,12.034,0,0,1,7.663,4.572a19.416,19.416,0,0,1,10.8-3.13,19.416,19.416,0,0,1,10.8,3.13,12.035,12.035,0,0,1,5.362,7.583.906.906,0,0,1-.881,1.059H3.183A.906.906,0,0,1,2.3,12.156ZM2.339,14.5a2.348,2.348,0,0,0,.844.157H33.739a2.352,2.352,0,0,0,1.145-.3,1.4,1.4,0,0,1,.1.526,1.426,1.426,0,0,1-.654,1.193,1.7,1.7,0,0,1-1.453.2c-.24-.076-.467-.174-.715-.227a3.9,3.9,0,0,0-.817-.083,3.953,3.953,0,0,0-2.535.88,2.661,2.661,0,0,1-3.405,0,4.09,4.09,0,0,0-5.069,0,2.661,2.661,0,0,1-3.405,0,4.091,4.091,0,0,0-5.069,0,2.661,2.661,0,0,1-3.406,0,3.951,3.951,0,0,0-2.535-.88,3.65,3.65,0,0,0-1.4.264,1.7,1.7,0,0,1-1.58-.154,1.426,1.426,0,0,1-.654-1.193A1.389,1.389,0,0,1,2.339,14.5Zm1.686,3.3a3.5,3.5,0,0,0,1.085-.248,2.484,2.484,0,0,1,1.106-.127,2.608,2.608,0,0,1,1.411.6,4.09,4.09,0,0,0,5.069,0,2.662,2.662,0,0,1,3.405,0,4.09,4.09,0,0,0,5.069,0,2.662,2.662,0,0,1,3.405,0,4.089,4.089,0,0,0,5.069,0,2.549,2.549,0,0,1,1.7-.616,2.335,2.335,0,0,1,.859.157,3.34,3.34,0,0,0,.833.215v1.425H3.881V17.8C3.929,17.8,3.977,17.8,4.025,17.8ZM1.442,22.855A2.208,2.208,0,0,1,3.648,20.65H5.793l3.932,3.933a.722.722,0,0,0,1.02,0L12.8,22.524l2.684,2.684H3.648A2.209,2.209,0,0,1,1.442,23Zm.963,3.576a3.659,3.659,0,0,0,1.243.218H16.93l1.337,1.337a.729.729,0,0,0,1.017,0l1.352-1.34H33.274a3.669,3.669,0,0,0,1.2-.2,1.837,1.837,0,0,0,.239-.095c.025-.013.06-.041.089-.039s.05.054.065.086a1.4,1.4,0,0,1,.123.55,1.5,1.5,0,0,1-1.117,1.435,1.708,1.708,0,0,1-1.117-.061,3.643,3.643,0,0,0-1.4-.264,3.95,3.95,0,0,0-2.534.88,2.661,2.661,0,0,1-3.405,0,4.09,4.09,0,0,0-5.069,0,2.661,2.661,0,0,1-3.405,0,4.09,4.09,0,0,0-5.069,0,2.661,2.661,0,0,1-3.405,0,3.952,3.952,0,0,0-2.535-.88,3.643,3.643,0,0,0-1.4.265,1.7,1.7,0,0,1-1.464-.083A1.479,1.479,0,0,1,2.3,27.189a1.423,1.423,0,0,1,0-.4C2.3,26.747,2.37,26.419,2.405,26.432ZM33.9,31.49a3.6,3.6,0,0,1-3.6,3.6H6.622a3.6,3.6,0,0,1-3.6-3.6V29.78a3.123,3.123,0,0,0,1.84-.046l.037-.012c.055-.019.111-.039.166-.062a2.232,2.232,0,0,1,.859-.157,2.547,2.547,0,0,1,1.7.616,4.09,4.09,0,0,0,5.069,0,2.662,2.662,0,0,1,3.405,0,4.09,4.09,0,0,0,5.069,0,2.662,2.662,0,0,1,3.405,0,4.09,4.09,0,0,0,5.069,0,2.548,2.548,0,0,1,1.7-.616,2.38,2.38,0,0,1,.638.082c.2.055.384.142.581.2a3.111,3.111,0,0,0,1.331.075V31.49Zm0,0" fill="#fff"/>
  <path id="Trazado_148" data-name="Trazado 148" d="M225.237,88.958a.721.721,0,1,0,.249-.864A.737.737,0,0,0,225.237,88.958Zm0,0" transform="translate(-208.946 -81.622)" fill="#fff"/>
  <path id="Trazado_149" data-name="Trazado 149" d="M270.356,133.043a.721.721,0,1,0,.248-.864A.737.737,0,0,0,270.356,133.043Zm0,0" transform="translate(-250.811 -122.528)" fill="#fff"/>
  <path id="Trazado_150" data-name="Trazado 150" d="M241.406,39.028a.721.721,0,1,0-.273-.855A.736.736,0,0,0,241.406,39.028Zm0,0" transform="translate(-223.703 -34.988)" fill="#fff"/>
</svg>
