<svg xmlns="http://www.w3.org/2000/svg" width="39.178" height="30.601" viewBox="0 0 39.178 30.601">
  <g id="_004-carne" data-name="004-carne" transform="translate(0 -56.043)">
    <g id="Grupo_42" data-name="Grupo 42" transform="translate(0 56.043)">
      <g id="Grupo_41" data-name="Grupo 41">
        <path id="Trazado_135" data-name="Trazado 135" d="M35.847,61.372a20.953,20.953,0,0,0-7.495-3.465,64.347,64.347,0,0,0-15.726-1.865A12.64,12.64,0,0,0,0,68.669v5.349A12.64,12.64,0,0,0,12.626,86.644a20.056,20.056,0,0,0,8.174-2.07,22.262,22.262,0,0,1,9.208-2.239,9.181,9.181,0,0,0,9.171-9.171V67.814A8.018,8.018,0,0,0,35.847,61.372ZM35.2,74.453a.765.765,0,0,0,1.082.033,9.191,9.191,0,0,0,1.363-1.619v.3a7.649,7.649,0,0,1-7.641,7.64,23.527,23.527,0,0,0-9.8,2.357,18.848,18.848,0,0,1-7.584,1.952A11.109,11.109,0,0,1,1.554,74.732a12.636,12.636,0,0,0,11.072,6.563,20.056,20.056,0,0,0,8.174-2.07,22.262,22.262,0,0,1,9.208-2.239c.285,0,.573-.013.856-.04a.765.765,0,1,0-.143-1.524c-.236.022-.476.033-.714.033a23.527,23.527,0,0,0-9.8,2.357,18.848,18.848,0,0,1-7.584,1.952,11.1,11.1,0,0,1,0-22.191,62.768,62.768,0,0,1,15.321,1.81c6.437,1.768,9.7,4.6,9.7,8.43a7.669,7.669,0,0,1-2.412,5.558A.765.765,0,0,0,35.2,74.453Z" transform="translate(0 -56.043)" fill="#fff"/>
      </g>
    </g>
    <g id="Grupo_44" data-name="Grupo 44" transform="translate(33.114 74.502)">
      <g id="Grupo_43" data-name="Grupo 43">
        <path id="Trazado_136" data-name="Trazado 136" d="M434.209,297.72a.765.765,0,0,0-1.018-.367l-.018.009a.765.765,0,1,0,1.036.358Z" transform="translate(-432.75 -297.281)" fill="#fff"/>
      </g>
    </g>
    <g id="Grupo_46" data-name="Grupo 46" transform="translate(17.284 59.314)">
      <g id="Grupo_45" data-name="Grupo 45">
        <path id="Trazado_137" data-name="Trazado 137" d="M226.742,98.795l-.039,0a.765.765,0,0,0-.122,1.526l.039,0,.062,0a.765.765,0,0,0,.06-1.528Z" transform="translate(-225.877 -98.789)" fill="#fff"/>
      </g>
    </g>
    <g id="Grupo_48" data-name="Grupo 48" transform="translate(3.061 59.104)">
      <g id="Grupo_47" data-name="Grupo 47">
        <path id="Trazado_138" data-name="Trazado 138" d="M72.577,102.691c-.759-1.5-2.448-2.8-5.02-3.853a32.743,32.743,0,0,0-5.9-1.7c-.925-.181-1.893-.343-2.88-.481a.765.765,0,1,0-.212,1.516c.959.134,1.9.291,2.8.467,5.256,1.031,8.846,2.758,9.848,4.74a2.966,2.966,0,0,1,.313,1.371,4.585,4.585,0,0,1-4.58,4.58,23.392,23.392,0,0,0-7.58,1.276c-1.1.37-2.162.812-3.193,1.239-.681.283-1.386.575-2.085.84a12.307,12.307,0,0,1-4.523.954,8.035,8.035,0,1,1,0-16.069c.864,0,1.742.016,2.608.049l.441.018a.765.765,0,0,0,.067-1.529l-.452-.018c-.885-.033-1.782-.05-2.665-.05a9.565,9.565,0,1,0,0,19.13,13.73,13.73,0,0,0,5.065-1.054c.722-.273,1.437-.571,2.13-.858,1.006-.418,2.047-.85,3.095-1.2a21.887,21.887,0,0,1,7.091-1.2,6.117,6.117,0,0,0,6.11-6.11A4.461,4.461,0,0,0,72.577,102.691Z" transform="translate(-39.998 -96.042)" fill="#fff"/>
      </g>
    </g>
    <g id="Grupo_50" data-name="Grupo 50" transform="translate(9.479 62.147)">
      <g id="Grupo_49" data-name="Grupo 49">
        <path id="Trazado_139" data-name="Trazado 139" d="M127.757,135.82a3.535,3.535,0,1,0,3.88,3.518A3.716,3.716,0,0,0,127.757,135.82Zm0,5.506a2.016,2.016,0,1,1,2.349-1.988A2.194,2.194,0,0,1,127.757,141.326Z" transform="translate(-123.877 -135.82)" fill="#fff"/>
      </g>
    </g>
  </g>
</svg>
