<svg xmlns="http://www.w3.org/2000/svg" width="153.624" height="145.91" viewBox="0 0 153.624 145.91">
  <g id="Layer_2" data-name="Layer 2" transform="translate(0 0)">
    <g id="Layer_1" data-name="Layer 1" transform="translate(0 0)">
      <path id="Trazado_279" data-name="Trazado 279" d="M198.7,80.359c-1.416,11.552-6.246,20.818-11.507,23,2.226-17.851,3.664-38.094,3.263-43.787-.091-1.31-.136-3.2-.174-5.481h.008C196.63,54.863,200.393,66.627,198.7,80.359Z" transform="translate(-45.484 -13.142)" fill="#fff"/>
      <path id="Trazado_280" data-name="Trazado 280" d="M11.915,103.365C6.654,101.185,1.816,91.919.4,80.359-1.28,66.627,2.482,54.863,8.811,54.09h.008c-.038,2.279-.076,4.171-.167,5.481C8.251,65.264,9.689,85.515,11.915,103.365Z" transform="translate(0 -13.142)" fill="#fff"/>
      <path id="Trazado_281" data-name="Trazado 281" d="M142.354,90.215v.008c-.984,7.881-2.12,15.292-3.316,20.78-1.635,7.54-4.141,16.269-12.241,23.1s-21.78,11.795-45.785,11.8C32.994,145.9,26.264,126.091,22.979,111c-1.2-5.488-2.332-12.9-3.308-20.78-2.226-17.851-3.664-38.1-3.263-43.794.091-1.31.129-3.2.167-5.481.22-11.946.5-34.415,8.872-38.692A23,23,0,0,1,41.155.712a1.4,1.4,0,0,0-.189.038C24.818,4.232,25.136,23.7,24.659,28.767s-.946,64.582,9.183,81.207c8.645,14.187,36.905,15.224,44.99,15.224,1.378,0,2.165-.03,2.18-.03s.8.03,2.18.03c8.077,0,36.337-1.037,44.99-15.224,10.129-16.624,9.652-76.142,9.175-81.207S137.2,4.232,121.059.75a1.406,1.406,0,0,0-.189-.038,22.978,22.978,0,0,1,15.7,1.544c8.373,4.277,8.653,26.746,8.872,38.692.038,2.279.083,4.171.174,5.481C146.019,52.122,144.58,72.365,142.354,90.215Z" transform="translate(-3.97 0)" fill="#fff"/>
      <path id="Trazado_282" data-name="Trazado 282" d="M137.915,29.193c-.045-.492-.083-1.083-.129-1.764-.659-10.326-2.809-21.2-13.8-23.574C109.306.691,87.5.6,85.059.6H84.1C81.66.6,59.85.691,45.171,3.856,34.186,6.225,32.029,17.1,31.37,27.43c-.038.681-.076,1.272-.129,1.764-.583,6.276-.59,64.007,8.751,79.344C46.185,118.7,65.959,122.316,82.4,122.316c1.295,0,2.036-.03,2.067-.03H84.7c.03,0,.772.03,2.067.03,16.435,0,36.209-3.619,42.4-13.778C138.512,93.2,138.5,35.469,137.915,29.193Zm-90.744,15.9c-1.359-12.929,1.979-23.876,7.455-24.452S65.642,30.082,67,43.01s-1.979,23.876-7.455,24.452S48.53,58.023,47.171,45.095ZM84.578,106.38c-22.164,0-27.492-23.539-27.492-23.539H112.07s-5.328,23.539-27.492,23.539Zm37.407-61.286c-1.359,12.929-6.9,22.943-12.375,22.368S100.8,55.939,102.155,43.01s6.9-22.943,12.375-22.368S123.344,32.166,121.985,45.095Z" transform="translate(-7.54 -0.146)" fill="#fff"/>
    </g>
  </g>
</svg>
