<svg xmlns="http://www.w3.org/2000/svg" width="435" height="771" viewBox="0 0 435 771">
  <path id="Intersección_2" data-name="Intersección 2" d="M278.372,771l-11.337-32.154-21.018,5.735L243.052,771h-4.71l7.413-66.133-12.82,1.564L209.39,770.913h-9.854l12.383-33.979-28.256-6.6L168.227,769.7l3.053,1.3h-8.547l7.674-19.552-30.7-11.732A344.234,344.234,0,0,1,124.448,771H113.634c13.953-23.985,24.592-51.1,31.832-73.172l-66.1-5.04L92.442,771H83.023l-4.185-24.941L40.9,752.489l-.349,5.04L48.489,771H43.082l-3.139-5.3-.349,5.3H34.971l1.308-17.727L8.547,757.964l.959,12.949H.175L0,768.5V620.015l8.285-28.209L0,591.1v-9.244l10.9.908,10.814-36.847L0,535.486v-17l5.757,2.753L25.814,450.85,6.89,440.248,0,461.342V446.428l2.53-7.743L0,438.262v-4.656l4.012.646L17.53,392.886,0,385.77v-5.03l18.925,7.715,24.245-74.04L0,318.51v-9.357l65.059-6.124-46.57-53.272c-3.182.3-12.089,1.195-18.489,1.766V246.99l17.007-1.665-1.745-25.983L0,221.282v-15.56l13.518-1.674L10.378,184.32c-3.8.595-7.366,1.156-10.378,1.621v-4.761l9.681-1.467-3.227-19.9L0,160.657v-4.663l5.669-.787L1.308,127.92,0,128.047v-9.239l36.454-3.489L30.7,74.475C20.991,76.475,10.661,78,0,79.149V69.872q2.678-.287,5.32-.611L2.616,32.5,0,32.186v-9.38l1.832.223L.175.086H9.507l5.058,67.871c5.407-.869,10.639-1.738,15.7-2.868l4.708-65h4.623L34.971,63.959c13.78-3.3,25.814-7.734,35.059-13.73.611-.435,1.308-.956,2.006-1.39L43.169.086h5.407l12.3,20.77L84.158,7.039,83.024.086h9.418L96.628,25.2A192.278,192.278,0,0,0,113.634.086h10.814q-1.962,3.65-4.186,7.3l34.972,12.079L162.82.086h8.546l24.419,10.168L199.535.086h9.854l-.785,2.26,28.518,8.777L238.343.086h4.71L241.57,12.513l22.325,6.953c3.053-.869,10.727-3.042,19.361-5.388L278.284,0h4.884c1.832,5.127,3.4,9.732,4.535,12.862,7.151-2,14.389-4,19.8-5.475l-3.576-7.3h17.268l1.57,3.042L333.313.086h33.227c-16.047,4.606-30.872,8.951-39.68,11.472l14.826,30.155,34.621-5.823L371.86.086h9.331l4.361,34.327,35.407-6L426.192.086H435v36.9l-2.355,12.456,2.355.691V54.9l-2.878-.847L435,60.25V82.271l-5.931-12.749-12.994,70.565A34.3,34.3,0,0,1,426.192,150.6L435,145.321V150.8l-6.628,3.978a34.774,34.774,0,0,1,2.791,13.47c0,.695-.087,1.3-.087,2l3.924.733v15.706l-8.46-1.579a33.888,33.888,0,0,1-23.46,16.338l-12.994,40.41L435,250.827v4.742l-20.669-4.159c-.523,3.3-1.57,9.646-2.7,16.511L435,271v4.669l-24.07-3.229c-1.046,6.518-2.093,12.948-2.791,17.12L435,294.615v9.4l-28.6-5.327-10.64,48.492L435,310.636v6.411l-39.942,37.081,15.96,19.466L435,359.406v10.7l-18.053,10.705,13.43,16.251L435,394.333v5.433l-1.745,1.028L435,402.921v7.26L412.936,383.24l-46.57,27.548L435,423.083v15.691l-18.053-3.218-8.721,51.706L435,493.612v4.753l-27.558-6.583L402.3,522.458c11.512,2.164,22.663,4.329,32.7,6.245v9.4l-21.8-4.169-6.977,48.4,21.366,4.346L435,555.9v20.058l-2.792,11.591,2.792.562v9.464l-30-6.029-4.1,28.418,34.1,6.7V631.3l-34.8-6.816-4.971,34.761L435,666.032v9.413l-41.076-6.99-4.884,34.152L435,708.867v9.263l-19.972-2.748-5.058,33.283,21.367-6.169L435,722.911v48h-8.983l3.4-18.249c-11.163,3.3-29.826,8.69-48.751,14.165l.523,4.084H371.86l-.174-1.477c-1.745.521-3.4.956-5.145,1.477H333.313l38.2-10.949,3.4-23.986-61.57,19.032L321.192,771H303.924L285.61,733.805l-14.127,3.824c2.005,5.735,7.412,21.117,11.773,33.371Zm102.819-13.905L405,750.23l5.32-35.283-22.675-3.128ZM5.757,720.77,8.2,753.358l69.854-11.906L73.343,713.47ZM303.14,734.326l8.11,16.425,23.285-7.3-4.361-16.859Zm-161.6,1.043,30.61,11.644,6.977-17.728-32.18-7.56C145.291,726.245,143.459,730.763,141.541,735.37Zm193.08-9.994,4.361,16.772,36.628-11.3,2.53-17.9Zm-84.157-21.117-3.924,35.369,36.976-10.081-13.691-27.809Zm-61.831,17.815,26.511,6.17,8.372-23.116-16.744-6.865Zm98.2-20.943L299.04,725.9l80.582-22.942,2.442-16.859-81.628-11.732ZM150.174,713.036l33.576,7.82,19.535-25.636-18.838-31.98-19.186-.521A508.871,508.871,0,0,1,150.174,713.036ZM3.227,686.183l1.831,25.288,66.8-7.213-3.924-23.551Zm231.54,15.469,32.965-4.258-10.988-22.247a33.833,33.833,0,0,1-10.727,1.738,17.49,17.49,0,0,1-2.18-.087Zm-25.029-7.214,15.436,6.344,9.507-25.983a31.171,31.171,0,0,1-7.239-3.563Zm60.174-27.548,14.3,29.025,21.627-42.408-26.511-4.519A33.433,33.433,0,0,1,269.912,666.89ZM78.576,688.008l68.373,5.214c4.1-12.949,7.064-23.725,8.808-30.764l-81.8-2.346Zm127.849,3.3,17.442-22.855a30.9,30.9,0,0,1-4.1-4.172l-29.825-.869ZM2.966,681.664l64.273-5.475-2.7-16.25L1.221,658.113Zm345.61-5.04,34.1,4.867,2.093-14.6-32.79-5.474Zm-45.96-6.605,41.337,5.91,3.489-15.382-36.89-6.169Zm-75-26.939a18.4,18.4,0,1,0,18.4-18.337A18.373,18.373,0,0,0,227.616,643.079ZM333.838,648.9l52.238,8.864,2.616-17.988-51.54-9.647Zm-143.983-.87,22.849.609a23.612,23.612,0,0,1-.436-5.562,36.511,36.511,0,0,1,.436-5.388l-19.36-9.3ZM150.61,626.915l-2.529,19.9,36.976,1.042,3.837-21.551-29.3-14.079Zm125.32.521a32.438,32.438,0,0,1,3.75,12.253l45,7.648,10.378-58.659ZM74.128,644.73l69.331,2,2.355-18.771L80.058,613.793Zm-71.162-2,61.743,1.738,2.268-11.819L7.762,626.48Zm334.97-17.207,51.453,9.733,1.919-13.644L343.081,596.76Zm-297.471-.347,27.384,2.868L78.4,573.122,55.64,562.172ZM9.158,621.961l26.686,2.781,15.523-64.568L30.175,550.006Zm113.11-3.823,24.941,5.388,8.111-13.383-22.849-10.949Zm146.685.174a35.983,35.983,0,0,1,4.535,5.127l62.7-41.017.785-4.519-51.628-10.428Zm-94.448-15.99,44.041,21.117a34.093,34.093,0,0,1,11.076-9.82l-7.239-28.765Zm-93.575,6.865,36.628,7.908,10.727-19.987-41.25-19.814ZM343.953,591.98l48.053,24.767,3.837-27.027-49.709-9.993ZM228.227,544.792l16.395,64.569h1.4a32.567,32.567,0,0,1,9.245,1.3l18.226-56.922L265.2,533.321Zm-84.505,42.669,25.029,12.08L200.669,587.9l-6.018-21.551ZM189.854,532.1l15.088,54.054,16.307-5.909-13.865-54.836ZM99.942,566.43l38.2,18.337,17.877-7.386-15.175-26.506ZM347.7,570.6l49.448,9.993,6.977-48.4-47.965-9.212ZM145.2,549.137l15.087,26.418,33.053-13.73-7.849-28.069Zm143.023,9.472,50.407,10.168,8.46-47.536-44.128-8.43ZM66.89,550.528l21.541,10.341,45-17.12L81.192,508.033Zm184.8-62.918,24.069,59.268,27.471-85.425ZM14.3,525.326l44.215,21.2,14.476-43.19-46.4-21.2ZM114.855,486.22l-5.493,35.455,29.3,20.075,17.791-6.779,14.041-71.347c-12.471-4.345-26.948-9.386-39.593-13.818Zm95.058-13.991L227.18,540.36l36.366-11.3L237.3,464.494ZM161.6,532.974l43.6-16.6-11.337-44.668c-4.709-1.652-11.337-4-18.925-6.605Zm200.756-18.249c11.512,2.172,23.546,4.518,35.32,6.778l14.651-86.816-7.5-1.39ZM82.762,503.513l22.413,15.295,4.8-31.2-21.1-2.52Zm223.081.434c10.378,2,29.738,5.649,51.8,9.907l3.227-6.17-43.6-39.366Zm36.541-19.2,20.581,18.683,36.976-70.912L376.4,428.256ZM27.82,477.617l46.656,21.291L79.8,483,32.006,463.1ZM241.308,462.06l8.634,21.291L304.274,455.8l-48.751-12.427ZM90.523,480.745l20.756,2.433,15.262-34.848c-9.68-3.389-17.878-6.257-22.587-7.909Zm228.314-17.293,20.057,18.162,32.617-54.227-38.9-6.951Zm-261.366.26,25.291,10.516,12.3-36.673L69.942,429.82Zm151.221,4,28.517-8.082,13.343-17.553-51.628-13.123Zm-61.309-17.033,45,15.73-10.639-41.974-25.64-7.647ZM34.622,454.153l18.664,7.734L78.4,393.756l-24.506-7.3Zm70.727-18.163,37.675,13.123,8.634-33.718-35.844-10.6Zm186.1,6.953,16.308,4.171,8.285-25.636-17.18-5.735ZM48.228,313.892,8.373,435.73l18.749,10.515,38.2-133.917ZM262.412,435.642l24.594,6.257,7.5-27.548L273.662,407.4ZM233.2,378.548l-17.093,9.82,10.814,38.063,26.425,6.692,23.372-58.313ZM71.686,425.388c5.233,1.651,18.053,5.649,24.942,7.735l10.377-30.937L82.85,395.059Zm120.436-23.2,4.186,16.6,25.291,6.43L211.918,390.8Zm83.2.869,42.122,13.991,13.518-41.974L292.587,359.95Zm-137.005-1.216,40.9,12.079-10.2-40.149Zm199.1,3.823,15,2.694,28.953-17.121c1.4-6.6,4.448-20.335,7.762-35.543l-33.14-7.821ZM92.181,333.879,80.32,384.631l52.762,15.642,34.709-31.546-9.331-36.76Zm90.087,29.286,8.721,34.327,38.023-21.813c-4.535-6.084-17.791-23.637-21.89-29.113ZM386.86,387.846l20.145-11.907-13.866-16.859ZM56.425,377.592l19.448,5.735,7.587-32.5-17.791-5.649Zm154.534-33.718,22.588,29.981,45-3.824.872-2.172-46.046-39.02Zm83.373,11.732,38.11,15.034,8.721-27.2-36.628-13.3Zm-30.96-7.387,17.878,15.121,14.912-37.368-11.25-8.17Zm-85.552-2.433,3.226,12.6,23.2-15.556-8.11-10.167Zm179.564-2.26,32.7,7.647c4.709-21.2,9.68-43.885,11.685-53.271l-28.081-5.214ZM75.262,311.372,66.89,340.658l17.616,5.648,8.546-36.585Zm147.3,2.346L259.8,345.176l21.367-30.155L250.988,293.3Zm-22.674,16.165c2.616,3.3,6.279,7.908,8.2,10.341l21.541-14.513-10.989-9.3Zm106.307-4,36.367,13.123,5.581-17.468c-7.326-3.649-20.058-10.255-33.14-17.727ZM160.64,277.393l14.825,58.659,41.076-29.459L205.2,268.876Zm-62.7,31.893-4.709,19.988,64.012-1.912L151.4,304.246ZM255,290.428l42.994,31.025,8.9-22.334c-10.9-6.431-21.367-13.3-28.518-19.467a43.7,43.7,0,0,1-3.488-3.476Zm27.122-19.987a26.737,26.737,0,0,0,2.268,2.172c16.134,13.818,51.191,32.241,66.628,40.062l10.291-31.98-41.861-42.148ZM68.459,240.981,75.7,302.073l21.628-2.086-8.2-62.048Zm147.733,32.5,8.284,27.462L245.407,286l-8.634-22.334ZM101.948,299.553l47.18-4.432-2.268-9.037L97.937,269.05ZM19.884,218.82l1.831,27.635,44.041,50.4L55.9,214.388Zm356.685,64.917,26.948,5.04L409.8,250.54,388.6,246.281ZM226.047,222.992l23.284,60.136L269.3,268.789c-12.123-18.336-21.977-48.752-27.3-67.349ZM93.75,237.244l3.489,26.678L145.466,280.7l-12.472-49.274Zm48.226-33.371,17.442,69.087,44.39-8.6-19.884-65.612Zm184.535,28.59,38.022,38.325,16.4-51.186L356.25,207Zm-118.344,14.6,6.628,21.9,20.319-9.732-12.383-31.893Zm53.721-14.774c4.273,11.384,9.245,22.595,14.651,30.851L291.1,250.627,278.2,226.034Zm20.669-8.081,12.209,23.29,17.965-15.469-15.784-13.384Zm-89.3-26.506,13.256,43.885L240.436,195.7c-.349-1.3-.7-2.521-.959-3.651ZM65.146,213.258l2.791,23.116,63.924-9.385-5.407-21.205Zm243.836-29.72L300,215.17l16.308,13.818,51.541-44.06a33.7,33.7,0,0,1-3.4-8.169Zm-60.174,7.386c2.268,8.516,6.366,22.595,11.512,36.934L295.552,214.3l8.547-30.155ZM360,203.786l22.325,11.384,4.8-14.774a34.563,34.563,0,0,1-13.605-8.169ZM15,183.624l3.139,19.814,35.146-4.258L48.4,178.5C41.513,179.54,27.472,181.713,15,183.624Zm47.442,14.426,63.227-7.735-2.442-9.211-65.494-3.042Zm78.051-9.56,38.721-4.693-23.372-37.368Zm238.343-20.335a18.4,18.4,0,1,0,18.4-18.336A18.372,18.372,0,0,0,378.837,168.156ZM158.9,142.606l25.378,40.584,14.914-1.826.087-45.015ZM133.082,181.8l23.546-64.308-44.3-15.555Zm70.9-46.145-.088,45.189,49.448-6-5.233-46.057ZM11.076,159.2l3.139,19.814,33.14-5.04-4.447-19.032Zm65.408-38.411,9.592,53.967,36.018,1.651-15.175-58.485Zm-31.4,2.956,11.6,49.621,24.593,1.13-9.506-53.271ZM255.7,155.034l2.181,19.206L285.7,170.85l-2.965-19.119Zm31.919-32.328,7.325,47.015,31.571-3.824L319.1,117.839Zm36.1-5.562,7.5,48.144,32.964-4A33.766,33.766,0,0,1,374.476,143.3l-15.523-31.633ZM5.931,127.486l4.36,27.113,31.483-4.172-6.018-25.81Zm246.715.695,2.529,22.246,26.86-3.215-3.575-23.03Zm91.22-82.124,44.214,89.684a2.052,2.052,0,0,0,.7-.174L376.918,40.5Zm42.209-7.125,11.861,95.593c1.134.086,2.18.174,3.314.26L420,33.283ZM160.727,133.048l39.68-6.17,16.569-59.094-28.43-10.689Zm44.738-6.953,24.157-3.737,11.25-45.537-19.535-7.386Zm29.041-4.432,36.279-5.649-3.75-29.2-21.89-8.256Zm-196.4-27.2,2.877,20.422,63.489-6.083L97.588,82.644Zm239.563,1.651,2.354,18.423,74.565-11.558L345,83.426Zm-142.239,9.037,22.762,7.995,9.68-26.5L143.459,76.561Zm-24.506-8.69,20.146,7.126,8.11-28.851L101.163,58.919Zm158.023-68.74,8.111,63.787,30.523-5.736c-3.576-10.341-16.831-49.794-21.279-62.831ZM75.088,58.05C64.535,64.829,50.844,69.87,35.233,73.606L37.5,89.944,96.454,78.212l-7.936-30.59A101.216,101.216,0,0,1,75.088,58.05ZM290.843,21.725l21.366,63.266,30.7-5.823L311.773,15.9ZM144.767,72.042,169.447,82.3,185.058,39.54l-28.43-9.82Zm78.053-6.953,43.6,16.512-3.576-28.157L233.11,42.669ZM96.105,40.062l3.488,13.383L140.407,70.3l11.86-42.061L115.2,15.469A179.772,179.772,0,0,1,96.105,40.062Zm94.011,12.513,28.43,10.777,11.162-24.507,5.581-18.6-29.913-9.212Zm44.651-14.251,27.471,9.907-2.616-20.423-19.883-6.17ZM63.227,24.853,75.873,46.145A116.566,116.566,0,0,0,88.78,34.326l-3.75-22.42Zm96.366-3.911,28.692,9.907,5.93-16.251L166.57,3.128ZM92.442,771ZM48.489,771ZM381.191,770.913ZM9.507,770.913Z" transform="translate(0)" fill="#fff"/>
</svg>
